<svg width="42" height="20" viewBox="0 0 42 20" fill="none" xmlns="http://www.w3.org/2000/svg">
<path d="M10 9C9.44772 9 9 9.44772 9 10C9 10.5523 9.44772 11 10 11L10 9ZM32.7071 10.7071C33.0976 10.3166 33.0976 9.68342 32.7071 9.2929L26.3431 2.92893C25.9526 2.53841 25.3195 2.53841 24.9289 2.92893C24.5384 3.31946 24.5384 3.95262 24.9289 4.34315L30.5858 10L24.9289 15.6569C24.5384 16.0474 24.5384 16.6805 24.9289 17.0711C25.3195 17.4616 25.9526 17.4616 26.3431 17.0711L32.7071 10.7071ZM10 11L32 11L32 9L10 9L10 11Z" class="fl0"/>
</svg>