<svg width="24" height="22" viewBox="0 0 24 22" fill="none" xmlns="http://www.w3.org/2000/svg">
<path d="M0 16.723L2.027 20.228H2.028C2.22997 20.6287 2.53921 20.9655 2.92128 21.2008C3.30336 21.4362 3.74326 21.5609 4.192 21.561H17.649L14.857 16.723H0ZM24 16.748C24 16.264 23.857 15.813 23.612 15.434L15.728 1.72796C15.5218 1.33878 15.2134 1.01313 14.836 0.786029C14.4586 0.558924 14.0265 0.438939 13.586 0.438965H9.419L21.598 21.54L23.518 18.215C23.896 17.578 24 17.296 24 16.748ZM12.871 13.286L7.428 3.85796L1.984 13.286H12.871Z" class="fl0"/>
</svg>