<svg width="64" height="58" viewBox="0 0 64 58" fill="none" xmlns="http://www.w3.org/2000/svg">
<path fill-rule="evenodd" clip-rule="evenodd" d="M31.3156 10.4122C30.8363 10.8047 29.6743 12.2807 28.7338 13.6928C26.6559 16.8118 24.913 18.5109 17.6451 24.502C14.5548 27.0489 10.1766 30.027 7.91619 31.1196C4.19937 32.9151 3.82291 33.2494 3.98304 34.6095C4.29994 37.3041 5.599 37.4844 9.84624 35.4248C13.3237 33.7378 16.414 31.5418 23.3965 25.7965L25.7766 23.8379L25.2007 25.4691C24.8838 26.3659 23.6864 28.8723 22.5396 31.038C20.455 34.9752 20.4534 34.9769 13.9929 38.4908C7.06382 42.2598 3.04134 45.712 1.11803 49.5397C-0.270933 52.3039 -0.344538 53.6869 0.779218 55.8926C3.56782 61.3685 12.4517 55.7944 20.441 43.556C23.3128 39.1578 24.3303 38.0892 27.4645 36.1819C29.4805 34.9547 32.0275 33.1319 33.1248 32.1311C35.0386 30.3853 35.1465 30.3562 35.7982 31.4163C36.6332 32.773 39.3375 32.8802 41.2153 31.6308C42.4587 30.8041 42.5762 30.8195 42.8998 31.855C43.3752 33.3755 46.098 34.4304 48.2877 33.942C49.2664 33.7235 51.0088 32.5893 52.159 31.4214C54.3402 29.2066 59.2746 20.9048 60.9434 16.6418C61.8851 14.2365 61.88 14.1395 60.7546 12.9967C59.7966 12.0231 58.2439 12.829 57.492 13.9741C56.8132 15.0077 55.9736 16.3745 55.2701 17.7886C52.4927 23.3724 50.0845 27.232 48.5956 28.4866C46.67 30.1098 48.2045 26.0099 52.0168 19.3473C54.6897 14.6769 54.8583 12.9419 52.7068 12.2487C51.2257 11.7712 50.3666 12.5711 48.2258 16.4227C46.5385 19.4585 40.4837 26.5183 39.9938 26.0213C39.7269 25.7498 42.3936 20.2847 44.8956 15.976C47.0459 12.2727 47.0083 10.067 44.7911 9.80745C43.6381 9.67223 43.0515 10.0094 42.3115 11.2338C38.2317 17.9803 32.7321 25.8137 30.5711 27.956L27.982 30.5234L30.0435 25.9591C32.5731 20.3588 34.7824 13.9387 34.7824 12.1866C34.7824 11.4683 34.2935 10.6147 33.6957 10.2895C32.5349 9.69901 31.973 9.87381 31.3156 10.4122ZM13.3057 45.7697C11.2464 48.5082 8.31231 51.3295 6.54801 52.2674C2.32888 54.5102 7.50433 47.4453 11.9527 44.8905C13.2293 44.1573 14.3722 43.6342 14.4924 43.7283C14.6132 43.8224 14.0789 44.741 13.3057 45.7697Z" class="fl0"/>
<path d="M64 32.8055C64 34.2234 62.868 35.3729 61.4716 35.3729C60.0751 35.3729 58.9431 34.2234 58.9431 32.8055C58.9431 31.3876 60.0751 30.2381 61.4716 30.2381C62.868 30.2381 64 31.3876 64 32.8055Z" class="fl0"/>
<path d="M35.3442 2.56738C35.3442 3.98531 34.2122 5.13477 32.8158 5.13477C31.4194 5.13477 30.2873 3.98531 30.2873 2.56738C30.2873 1.14946 31.4194 0 32.8158 0C34.2122 0 35.3442 1.14946 35.3442 2.56738Z" class="fl0"/>
</svg>
